<svg xmlns:xlink="http://www.w3.org/1999/xlink" xmlns="http://www.w3.org/2000/svg" class="css-ze2te4 css-qd6ojx" viewBox="0 0 140 140" width="140"  height="140" ><defs><linearGradient id="SvgjsLinearGradient1091"><stop id="SvgjsStop1092" stop-color="#7f00ff" offset="0"></stop><stop id="SvgjsStop1093" stop-color="#e100ff" offset="1"></stop></linearGradient><linearGradient id="SvgjsLinearGradient1091"><stop id="SvgjsStop1092" stop-color="#7f00ff" offset="0"></stop><stop id="SvgjsStop1093" stop-color="#e100ff" offset="1"></stop></linearGradient><linearGradient id="SvgjsLinearGradient1091"><stop id="SvgjsStop1092" stop-color="#7f00ff" offset="0"></stop><stop id="SvgjsStop1093" stop-color="#e100ff" offset="1"></stop></linearGradient><linearGradient id="SvgjsLinearGradient1091"><stop id="SvgjsStop1092" stop-color="#7f00ff" offset="0"></stop><stop id="SvgjsStop1093" stop-color="#e100ff" offset="1"></stop></linearGradient><linearGradient id="SvgjsLinearGradient1091"><stop id="SvgjsStop1092" stop-color="#7f00ff" offset="0"></stop><stop id="SvgjsStop1093" stop-color="#e100ff" offset="1"></stop></linearGradient><linearGradient id="SvgjsLinearGradient1091"><stop id="SvgjsStop1092" stop-color="#7f00ff" offset="0"></stop><stop id="SvgjsStop1093" stop-color="#e100ff" offset="1"></stop></linearGradient><linearGradient id="SvgjsLinearGradient1091"><stop id="SvgjsStop1092" stop-color="#7f00ff" offset="0"></stop><stop id="SvgjsStop1093" stop-color="#e100ff" offset="1"></stop></linearGradient><linearGradient id="SvgjsLinearGradient1091"><stop id="SvgjsStop1092" stop-color="#7f00ff" offset="0"></stop><stop id="SvgjsStop1093" stop-color="#e100ff" offset="1"></stop></linearGradient><linearGradient id="SvgjsLinearGradient1091"><stop id="SvgjsStop1092" stop-color="#7f00ff" offset="0"></stop><stop id="SvgjsStop1093" stop-color="#e100ff" offset="1"></stop></linearGradient><linearGradient id="SvgjsLinearGradient1091"><stop id="SvgjsStop1092" stop-color="#7f00ff" offset="0"></stop><stop id="SvgjsStop1093" stop-color="#e100ff" offset="1"></stop></linearGradient><linearGradient id="SvgjsLinearGradient1091"><stop id="SvgjsStop1092" stop-color="#7f00ff" offset="0"></stop><stop id="SvgjsStop1093" stop-color="#e100ff" offset="1"></stop></linearGradient><linearGradient id="SvgjsLinearGradient1091"><stop id="SvgjsStop1092" stop-color="#7f00ff" offset="0"></stop><stop id="SvgjsStop1093" stop-color="#e100ff" offset="1"></stop></linearGradient><linearGradient id="SvgjsLinearGradient1091"><stop id="SvgjsStop1092" stop-color="#7f00ff" offset="0"></stop><stop id="SvgjsStop1093" stop-color="#e100ff" offset="1"></stop></linearGradient><linearGradient id="SvgjsLinearGradient1091"><stop id="SvgjsStop1092" stop-color="#7f00ff" offset="0"></stop><stop id="SvgjsStop1093" stop-color="#e100ff" offset="1"></stop></linearGradient><linearGradient id="SvgjsLinearGradient1091"><stop id="SvgjsStop1092" stop-color="#7f00ff" offset="0"></stop><stop id="SvgjsStop1093" stop-color="#e100ff" offset="1"></stop></linearGradient><linearGradient id="SvgjsLinearGradient1091"><stop id="SvgjsStop1092" stop-color="#7f00ff" offset="0"></stop><stop id="SvgjsStop1093" stop-color="#e100ff" offset="1"></stop></linearGradient><linearGradient id="SvgjsLinearGradient1091"><stop id="SvgjsStop1092" stop-color="#7f00ff" offset="0"></stop><stop id="SvgjsStop1093" stop-color="#e100ff" offset="1"></stop></linearGradient><linearGradient id="SvgjsLinearGradient1091"><stop id="SvgjsStop1092" stop-color="#7f00ff" offset="0"></stop><stop id="SvgjsStop1093" stop-color="#e100ff" offset="1"></stop></linearGradient><linearGradient id="SvgjsLinearGradient1091"><stop id="SvgjsStop1092" stop-color="#7f00ff" offset="0"></stop><stop id="SvgjsStop1093" stop-color="#e100ff" offset="1"></stop></linearGradient><linearGradient id="SvgjsLinearGradient1091"><stop id="SvgjsStop1092" stop-color="#7f00ff" offset="0"></stop><stop id="SvgjsStop1093" stop-color="#e100ff" offset="1"></stop></linearGradient><linearGradient id="SvgjsLinearGradient1091"><stop id="SvgjsStop1092" stop-color="#7f00ff" offset="0"></stop><stop id="SvgjsStop1093" stop-color="#e100ff" offset="1"></stop></linearGradient><linearGradient id="SvgjsLinearGradient1091"><stop id="SvgjsStop1092" stop-color="#7f00ff" offset="0"></stop><stop id="SvgjsStop1093" stop-color="#e100ff" offset="1"></stop></linearGradient><linearGradient id="SvgjsLinearGradient1091"><stop id="SvgjsStop1092" stop-color="#7f00ff" offset="0"></stop><stop id="SvgjsStop1093" stop-color="#e100ff" offset="1"></stop></linearGradient><linearGradient id="SvgjsLinearGradient1091"><stop id="SvgjsStop1092" stop-color="#7f00ff" offset="0"></stop><stop id="SvgjsStop1093" stop-color="#e100ff" offset="1"></stop></linearGradient><linearGradient id="SvgjsLinearGradient1091"><stop id="SvgjsStop1092" stop-color="#7f00ff" offset="0"></stop><stop id="SvgjsStop1093" stop-color="#e100ff" offset="1"></stop></linearGradient><linearGradient id="SvgjsLinearGradient1091"><stop id="SvgjsStop1092" stop-color="#7f00ff" offset="0"></stop><stop id="SvgjsStop1093" stop-color="#e100ff" offset="1"></stop></linearGradient><linearGradient id="SvgjsLinearGradient1091"><stop id="SvgjsStop1092" stop-color="#7f00ff" offset="0"></stop><stop id="SvgjsStop1093" stop-color="#e100ff" offset="1"></stop></linearGradient><linearGradient id="SvgjsLinearGradient1091"><stop id="SvgjsStop1092" stop-color="#7f00ff" offset="0"></stop><stop id="SvgjsStop1093" stop-color="#e100ff" offset="1"></stop></linearGradient><linearGradient id="SvgjsLinearGradient1091"><stop id="SvgjsStop1092" stop-color="#7f00ff" offset="0"></stop><stop id="SvgjsStop1093" stop-color="#e100ff" offset="1"></stop></linearGradient><linearGradient id="SvgjsLinearGradient1091"><stop id="SvgjsStop1092" stop-color="#7f00ff" offset="0"></stop><stop id="SvgjsStop1093" stop-color="#e100ff" offset="1"></stop></linearGradient><linearGradient id="SvgjsLinearGradient1091"><stop id="SvgjsStop1092" stop-color="#7f00ff" offset="0"></stop><stop id="SvgjsStop1093" stop-color="#e100ff" offset="1"></stop></linearGradient><linearGradient id="SvgjsLinearGradient1091"><stop id="SvgjsStop1092" stop-color="#7f00ff" offset="0"></stop><stop id="SvgjsStop1093" stop-color="#e100ff" offset="1"></stop></linearGradient><linearGradient id="SvgjsLinearGradient1091"><stop id="SvgjsStop1092" stop-color="#7f00ff" offset="0"></stop><stop id="SvgjsStop1093" stop-color="#e100ff" offset="1"></stop></linearGradient><linearGradient id="SvgjsLinearGradient1091"><stop id="SvgjsStop1092" stop-color="#7f00ff" offset="0"></stop><stop id="SvgjsStop1093" stop-color="#e100ff" offset="1"></stop></linearGradient><linearGradient id="SvgjsLinearGradient1091"><stop id="SvgjsStop1092" stop-color="#7f00ff" offset="0"></stop><stop id="SvgjsStop1093" stop-color="#e100ff" offset="1"></stop></linearGradient><linearGradient id="SvgjsLinearGradient3966"><stop id="SvgjsStop3967" stop-color="#7f00ff" offset="0"></stop><stop id="SvgjsStop3968" stop-color="#e100ff" offset="1"></stop></linearGradient><linearGradient id="SvgjsLinearGradient1091"><stop id="SvgjsStop1092" stop-color="#7f00ff" offset="0"></stop><stop id="SvgjsStop1093" stop-color="#e100ff" offset="1"></stop></linearGradient><linearGradient id="SvgjsLinearGradient1091"><stop id="SvgjsStop1092" stop-color="#7f00ff" offset="0"></stop><stop id="SvgjsStop1093" stop-color="#e100ff" offset="1"></stop></linearGradient><linearGradient id="SvgjsLinearGradient1091"><stop id="SvgjsStop1092" stop-color="#7f00ff" offset="0"></stop><stop id="SvgjsStop1093" stop-color="#e100ff" offset="1"></stop></linearGradient><linearGradient id="SvgjsLinearGradient1091"><stop id="SvgjsStop1092" stop-color="#7f00ff" offset="0"></stop><stop id="SvgjsStop1093" stop-color="#e100ff" offset="1"></stop></linearGradient><linearGradient id="SvgjsLinearGradient1091"><stop id="SvgjsStop1092" stop-color="#7f00ff" offset="0"></stop><stop id="SvgjsStop1093" stop-color="#e100ff" offset="1"></stop></linearGradient><linearGradient id="SvgjsLinearGradient1091"><stop id="SvgjsStop1092" stop-color="#7f00ff" offset="0"></stop><stop id="SvgjsStop1093" stop-color="#e100ff" offset="1"></stop></linearGradient><linearGradient id="SvgjsLinearGradient1091"><stop id="SvgjsStop1092" stop-color="#7f00ff" offset="0"></stop><stop id="SvgjsStop1093" stop-color="#e100ff" offset="1"></stop></linearGradient><linearGradient id="SvgjsLinearGradient1091"><stop id="SvgjsStop1092" stop-color="#7f00ff" offset="0"></stop><stop id="SvgjsStop1093" stop-color="#e100ff" offset="1"></stop></linearGradient><linearGradient id="SvgjsLinearGradient1091"><stop id="SvgjsStop1092" stop-color="#7f00ff" offset="0"></stop><stop id="SvgjsStop1093" stop-color="#e100ff" offset="1"></stop></linearGradient><linearGradient id="SvgjsLinearGradient1091"><stop id="SvgjsStop1092" stop-color="#7f00ff" offset="0"></stop><stop id="SvgjsStop1093" stop-color="#e100ff" offset="1"></stop></linearGradient><linearGradient id="SvgjsLinearGradient1091"><stop id="SvgjsStop1092" stop-color="#7f00ff" offset="0"></stop><stop id="SvgjsStop1093" stop-color="#e100ff" offset="1"></stop></linearGradient><linearGradient id="SvgjsLinearGradient1091"><stop id="SvgjsStop1092" stop-color="#7f00ff" offset="0"></stop><stop id="SvgjsStop1093" stop-color="#e100ff" offset="1"></stop></linearGradient><linearGradient id="SvgjsLinearGradient1091"><stop id="SvgjsStop1092" stop-color="#7f00ff" offset="0"></stop><stop id="SvgjsStop1093" stop-color="#e100ff" offset="1"></stop></linearGradient><linearGradient id="SvgjsLinearGradient1091"><stop id="SvgjsStop1092" stop-color="#7f00ff" offset="0"></stop><stop id="SvgjsStop1093" stop-color="#e100ff" offset="1"></stop></linearGradient><linearGradient id="SvgjsLinearGradient1091"><stop id="SvgjsStop1092" stop-color="#7f00ff" offset="0"></stop><stop id="SvgjsStop1093" stop-color="#e100ff" offset="1"></stop></linearGradient><linearGradient id="SvgjsLinearGradient1091"><stop id="SvgjsStop1092" stop-color="#7f00ff" offset="0"></stop><stop id="SvgjsStop1093" stop-color="#e100ff" offset="1"></stop></linearGradient><linearGradient id="SvgjsLinearGradient1091"><stop id="SvgjsStop1092" stop-color="#7f00ff" offset="0"></stop><stop id="SvgjsStop1093" stop-color="#e100ff" offset="1"></stop></linearGradient><linearGradient id="SvgjsLinearGradient1091"><stop id="SvgjsStop1092" stop-color="#7f00ff" offset="0"></stop><stop id="SvgjsStop1093" stop-color="#e100ff" offset="1"></stop></linearGradient><linearGradient id="SvgjsLinearGradient1091"><stop id="SvgjsStop1092" stop-color="#7f00ff" offset="0"></stop><stop id="SvgjsStop1093" stop-color="#e100ff" offset="1"></stop></linearGradient><linearGradient id="SvgjsLinearGradient1091"><stop id="SvgjsStop1092" stop-color="#7f00ff" offset="0"></stop><stop id="SvgjsStop1093" stop-color="#e100ff" offset="1"></stop></linearGradient><linearGradient id="SvgjsLinearGradient1091"><stop id="SvgjsStop1092" stop-color="#7f00ff" offset="0"></stop><stop id="SvgjsStop1093" stop-color="#e100ff" offset="1"></stop></linearGradient><linearGradient id="SvgjsLinearGradient1091"><stop id="SvgjsStop1092" stop-color="#7f00ff" offset="0"></stop><stop id="SvgjsStop1093" stop-color="#e100ff" offset="1"></stop></linearGradient><linearGradient id="SvgjsLinearGradient1091"><stop id="SvgjsStop1092" stop-color="#7f00ff" offset="0"></stop><stop id="SvgjsStop1093" stop-color="#e100ff" offset="1"></stop></linearGradient><linearGradient id="SvgjsLinearGradient1091"><stop id="SvgjsStop1092" stop-color="#7f00ff" offset="0"></stop><stop id="SvgjsStop1093" stop-color="#e100ff" offset="1"></stop></linearGradient><linearGradient id="SvgjsLinearGradient1091"><stop id="SvgjsStop1092" stop-color="#7f00ff" offset="0"></stop><stop id="SvgjsStop1093" stop-color="#e100ff" offset="1"></stop></linearGradient><linearGradient id="SvgjsLinearGradient1091"><stop id="SvgjsStop1092" stop-color="#7f00ff" offset="0"></stop><stop id="SvgjsStop1093" stop-color="#e100ff" offset="1"></stop></linearGradient><linearGradient id="SvgjsLinearGradient1091"><stop id="SvgjsStop1092" stop-color="#7f00ff" offset="0"></stop><stop id="SvgjsStop1093" stop-color="#e100ff" offset="1"></stop></linearGradient><linearGradient id="SvgjsLinearGradient1091"><stop id="SvgjsStop1092" stop-color="#7f00ff" offset="0"></stop><stop id="SvgjsStop1093" stop-color="#e100ff" offset="1"></stop></linearGradient><linearGradient id="SvgjsLinearGradient1091"><stop id="SvgjsStop1092" stop-color="#7f00ff" offset="0"></stop><stop id="SvgjsStop1093" stop-color="#e100ff" offset="1"></stop></linearGradient><linearGradient id="SvgjsLinearGradient1091"><stop id="SvgjsStop1092" stop-color="#7f00ff" offset="0"></stop><stop id="SvgjsStop1093" stop-color="#e100ff" offset="1"></stop></linearGradient><linearGradient id="SvgjsLinearGradient1091"><stop id="SvgjsStop1092" stop-color="#7f00ff" offset="0"></stop><stop id="SvgjsStop1093" stop-color="#e100ff" offset="1"></stop></linearGradient><linearGradient id="SvgjsLinearGradient1091"><stop id="SvgjsStop1092" stop-color="#7f00ff" offset="0"></stop><stop id="SvgjsStop1093" stop-color="#e100ff" offset="1"></stop></linearGradient><linearGradient id="SvgjsLinearGradient1091"><stop id="SvgjsStop1092" stop-color="#7f00ff" offset="0"></stop><stop id="SvgjsStop1093" stop-color="#e100ff" offset="1"></stop></linearGradient><linearGradient id="SvgjsLinearGradient1091"><stop id="SvgjsStop1092" stop-color="#7f00ff" offset="0"></stop><stop id="SvgjsStop1093" stop-color="#e100ff" offset="1"></stop></linearGradient></defs><g transform="translate(-6.363636363636363, -6.363636363636363) scale(1.5909090909090908)" class="css-1n1hwrf" fill="url(&quot;#SvgjsLinearGradient3966&quot;)"><path xmlns="http://www.w3.org/2000/svg" d="M80 82h-64c-1.1 0-2-0.9-2-2v-64c0-1.104 0.9-2 2-2h64c1.1 0 2 0.896 2 2v64c0 1.1-0.9 2-2 2zM18 78h60v-60h-60v60z" fill="url(&quot;#SvgjsLinearGradient1091&quot;)"></path><path xmlns="http://www.w3.org/2000/svg" d="M68 70h-40c-1.1 0-2-0.9-2-2v-40c0-1.104 0.9-2 2-2h40c1.1 0 2 0.896 2 2v40c0 1.1-0.9 2-2 2zM30 66h36v-36h-36v36z" fill="url(&quot;#SvgjsLinearGradient1091&quot;)"></path><path xmlns="http://www.w3.org/2000/svg" d="M20 16c-1.1 0-2-0.896-2-2v-8c0-1.104 0.9-2 2-2s2 0.896 2 2v8c0 1.104-0.9 2-2 2z" fill="url(&quot;#SvgjsLinearGradient1091&quot;)"></path><path xmlns="http://www.w3.org/2000/svg" d="M28 16c-1.1 0-2-0.896-2-2v-8c0-1.104 0.9-2 2-2s2 0.896 2 2v8c0 1.104-0.9 2-2 2z" fill="url(&quot;#SvgjsLinearGradient1091&quot;)"></path><path xmlns="http://www.w3.org/2000/svg" d="M36 16c-1.1 0-2-0.896-2-2v-8c0-1.104 0.9-2 2-2s2 0.896 2 2v8c0 1.104-0.9 2-2 2z" fill="url(&quot;#SvgjsLinearGradient1091&quot;)"></path><path xmlns="http://www.w3.org/2000/svg" d="M44 16c-1.1 0-2-0.896-2-2v-8c0-1.104 0.9-2 2-2s2 0.896 2 2v8c0 1.104-0.9 2-2 2z" fill="url(&quot;#SvgjsLinearGradient1091&quot;)"></path><path xmlns="http://www.w3.org/2000/svg" d="M52 16c-1.1 0-2-0.896-2-2v-8c0-1.104 0.9-2 2-2s2 0.896 2 2v8c0 1.104-0.9 2-2 2z" fill="url(&quot;#SvgjsLinearGradient1091&quot;)"></path><path xmlns="http://www.w3.org/2000/svg" d="M60 16c-1.1 0-2-0.896-2-2v-8c0-1.104 0.9-2 2-2s2 0.896 2 2v8c0 1.104-0.9 2-2 2z" fill="url(&quot;#SvgjsLinearGradient1091&quot;)"></path><path xmlns="http://www.w3.org/2000/svg" d="M68 16c-1.1 0-2-0.896-2-2v-8c0-1.104 0.9-2 2-2s2 0.896 2 2v8c0 1.104-0.9 2-2 2z" fill="url(&quot;#SvgjsLinearGradient1091&quot;)"></path><path xmlns="http://www.w3.org/2000/svg" d="M76 16c-1.1 0-2-0.896-2-2v-8c0-1.104 0.9-2 2-2s2 0.896 2 2v8c0 1.104-0.9 2-2 2z" fill="url(&quot;#SvgjsLinearGradient1091&quot;)"></path><path xmlns="http://www.w3.org/2000/svg" d="M20 92c-1.1 0-2-0.9-2-2v-8c0-1.1 0.9-2 2-2s2 0.9 2 2v8c0 1.1-0.9 2-2 2z" fill="url(&quot;#SvgjsLinearGradient1091&quot;)"></path><path xmlns="http://www.w3.org/2000/svg" d="M28 92c-1.1 0-2-0.9-2-2v-8c0-1.1 0.9-2 2-2s2 0.9 2 2v8c0 1.1-0.9 2-2 2z" fill="url(&quot;#SvgjsLinearGradient1091&quot;)"></path><path xmlns="http://www.w3.org/2000/svg" d="M36 92c-1.1 0-2-0.9-2-2v-8c0-1.1 0.9-2 2-2s2 0.9 2 2v8c0 1.1-0.9 2-2 2z" fill="url(&quot;#SvgjsLinearGradient1091&quot;)"></path><path xmlns="http://www.w3.org/2000/svg" d="M44 92c-1.1 0-2-0.9-2-2v-8c0-1.1 0.9-2 2-2s2 0.9 2 2v8c0 1.1-0.9 2-2 2z" fill="url(&quot;#SvgjsLinearGradient1091&quot;)"></path><path xmlns="http://www.w3.org/2000/svg" d="M52 92c-1.1 0-2-0.9-2-2v-8c0-1.1 0.9-2 2-2s2 0.9 2 2v8c0 1.1-0.9 2-2 2z" fill="url(&quot;#SvgjsLinearGradient1091&quot;)"></path><path xmlns="http://www.w3.org/2000/svg" d="M60 92c-1.1 0-2-0.9-2-2v-8c0-1.1 0.9-2 2-2s2 0.9 2 2v8c0 1.1-0.9 2-2 2z" fill="url(&quot;#SvgjsLinearGradient1091&quot;)"></path><path xmlns="http://www.w3.org/2000/svg" d="M68 92c-1.1 0-2-0.9-2-2v-8c0-1.1 0.9-2 2-2s2 0.9 2 2v8c0 1.1-0.9 2-2 2z" fill="url(&quot;#SvgjsLinearGradient1091&quot;)"></path><path xmlns="http://www.w3.org/2000/svg" d="M76 92c-1.1 0-2-0.9-2-2v-8c0-1.1 0.9-2 2-2s2 0.9 2 2v8c0 1.1-0.9 2-2 2z" fill="url(&quot;#SvgjsLinearGradient1091&quot;)"></path><path xmlns="http://www.w3.org/2000/svg" d="M14 78h-8c-1.1 0-2-0.9-2-2s0.9-2 2-2h8c1.1 0 2 0.9 2 2s-0.9 2-2 2z" fill="url(&quot;#SvgjsLinearGradient1091&quot;)"></path><path xmlns="http://www.w3.org/2000/svg" d="M14 70h-8c-1.1 0-2-0.9-2-2s0.9-2 2-2h8c1.1 0 2 0.9 2 2s-0.9 2-2 2z" fill="url(&quot;#SvgjsLinearGradient1091&quot;)"></path><path xmlns="http://www.w3.org/2000/svg" d="M14 62h-8c-1.1 0-2-0.9-2-2s0.9-2 2-2h8c1.1 0 2 0.9 2 2s-0.9 2-2 2z" fill="url(&quot;#SvgjsLinearGradient1091&quot;)"></path><path xmlns="http://www.w3.org/2000/svg" d="M14 54h-8c-1.1 0-2-0.9-2-2s0.9-2 2-2h8c1.1 0 2 0.9 2 2s-0.9 2-2 2z" fill="url(&quot;#SvgjsLinearGradient1091&quot;)"></path><path xmlns="http://www.w3.org/2000/svg" d="M14 46h-8c-1.1 0-2-0.896-2-2s0.9-2 2-2h8c1.1 0 2 0.896 2 2s-0.9 2-2 2z" fill="url(&quot;#SvgjsLinearGradient1091&quot;)"></path><path xmlns="http://www.w3.org/2000/svg" d="M14 38h-8c-1.1 0-2-0.896-2-2s0.9-2 2-2h8c1.1 0 2 0.896 2 2s-0.9 2-2 2z" fill="url(&quot;#SvgjsLinearGradient1091&quot;)"></path><path xmlns="http://www.w3.org/2000/svg" d="M14 30h-8c-1.1 0-2-0.896-2-2s0.9-2 2-2h8c1.1 0 2 0.896 2 2s-0.9 2-2 2z" fill="url(&quot;#SvgjsLinearGradient1091&quot;)"></path><path xmlns="http://www.w3.org/2000/svg" d="M14 22h-8c-1.1 0-2-0.896-2-2s0.9-2 2-2h8c1.1 0 2 0.896 2 2s-0.9 2-2 2z" fill="url(&quot;#SvgjsLinearGradient1091&quot;)"></path><path xmlns="http://www.w3.org/2000/svg" d="M90 78h-8c-1.1 0-2-0.9-2-2s0.9-2 2-2h8c1.1 0 2 0.9 2 2s-0.9 2-2 2z" fill="url(&quot;#SvgjsLinearGradient1091&quot;)"></path><path xmlns="http://www.w3.org/2000/svg" d="M90 70h-8c-1.1 0-2-0.9-2-2s0.9-2 2-2h8c1.1 0 2 0.9 2 2s-0.9 2-2 2z" fill="url(&quot;#SvgjsLinearGradient1091&quot;)"></path><path xmlns="http://www.w3.org/2000/svg" d="M90 62h-8c-1.1 0-2-0.9-2-2s0.9-2 2-2h8c1.1 0 2 0.9 2 2s-0.9 2-2 2z" fill="url(&quot;#SvgjsLinearGradient1091&quot;)"></path><path xmlns="http://www.w3.org/2000/svg" d="M90 54h-8c-1.1 0-2-0.9-2-2s0.9-2 2-2h8c1.1 0 2 0.9 2 2s-0.9 2-2 2z" fill="url(&quot;#SvgjsLinearGradient1091&quot;)"></path><path xmlns="http://www.w3.org/2000/svg" d="M90 46h-8c-1.1 0-2-0.896-2-2s0.9-2 2-2h8c1.1 0 2 0.896 2 2s-0.9 2-2 2z" fill="url(&quot;#SvgjsLinearGradient1091&quot;)"></path><path xmlns="http://www.w3.org/2000/svg" d="M90 38h-8c-1.1 0-2-0.896-2-2s0.9-2 2-2h8c1.1 0 2 0.896 2 2s-0.9 2-2 2z" fill="url(&quot;#SvgjsLinearGradient1091&quot;)"></path><path xmlns="http://www.w3.org/2000/svg" d="M90 30h-8c-1.1 0-2-0.896-2-2s0.9-2 2-2h8c1.1 0 2 0.896 2 2s-0.9 2-2 2z" fill="url(&quot;#SvgjsLinearGradient1091&quot;)"></path><path xmlns="http://www.w3.org/2000/svg" d="M90 22h-8c-1.1 0-2-0.896-2-2s0.9-2 2-2h8c1.1 0 2 0.896 2 2s-0.9 2-2 2z" fill="url(&quot;#SvgjsLinearGradient1091&quot;)"></path></g></svg>