<svg xmlns:xlink="http://www.w3.org/1999/xlink" xmlns="http://www.w3.org/2000/svg" viewBox="0 0 350.00000000000006 227.02643272104763" preserveAspectRatio="xMidYMid meet" class="css-grg60t" id="gdaebagd" width="350.00000000000006"  height="227.02643272104763" ><defs id="SvgjsDefs3959"><linearGradient id="SvgjsLinearGradient3966"><stop id="SvgjsStop3967" stop-color="#7f00ff" offset="0"></stop><stop id="SvgjsStop3968" stop-color="#e100ff" offset="1"></stop></linearGradient><linearGradient id="SvgjsLinearGradient3969"><stop id="SvgjsStop3970" stop-color="#7f00ff" offset="0"></stop><stop id="SvgjsStop3971" stop-color="#e100ff" offset="1"></stop></linearGradient><linearGradient id="SvgjsLinearGradient3966"><stop id="SvgjsStop3967" stop-color="#7f00ff" offset="0"></stop><stop id="SvgjsStop3968" stop-color="#e100ff" offset="1"></stop></linearGradient><linearGradient id="SvgjsLinearGradient3966"><stop id="SvgjsStop3967" stop-color="#7f00ff" offset="0"></stop><stop id="SvgjsStop3968" stop-color="#e100ff" offset="1"></stop></linearGradient><linearGradient id="SvgjsLinearGradient3966"><stop id="SvgjsStop3967" stop-color="#7f00ff" offset="0"></stop><stop id="SvgjsStop3968" stop-color="#e100ff" offset="1"></stop></linearGradient><linearGradient id="SvgjsLinearGradient3966"><stop id="SvgjsStop3967" stop-color="#7f00ff" offset="0"></stop><stop id="SvgjsStop3968" stop-color="#e100ff" offset="1"></stop></linearGradient><linearGradient id="SvgjsLinearGradient3966"><stop id="SvgjsStop3967" stop-color="#7f00ff" offset="0"></stop><stop id="SvgjsStop3968" stop-color="#e100ff" offset="1"></stop></linearGradient><linearGradient id="SvgjsLinearGradient3966"><stop id="SvgjsStop3967" stop-color="#7f00ff" offset="0"></stop><stop id="SvgjsStop3968" stop-color="#e100ff" offset="1"></stop></linearGradient><linearGradient id="SvgjsLinearGradient3966"><stop id="SvgjsStop3967" stop-color="#7f00ff" offset="0"></stop><stop id="SvgjsStop3968" stop-color="#e100ff" offset="1"></stop></linearGradient><linearGradient id="SvgjsLinearGradient3966"><stop id="SvgjsStop3967" stop-color="#7f00ff" offset="0"></stop><stop id="SvgjsStop3968" stop-color="#e100ff" offset="1"></stop></linearGradient><linearGradient id="SvgjsLinearGradient3966"><stop id="SvgjsStop3967" stop-color="#7f00ff" offset="0"></stop><stop id="SvgjsStop3968" stop-color="#e100ff" offset="1"></stop></linearGradient><linearGradient id="SvgjsLinearGradient3966"><stop id="SvgjsStop3967" stop-color="#7f00ff" offset="0"></stop><stop id="SvgjsStop3968" stop-color="#e100ff" offset="1"></stop></linearGradient><linearGradient id="SvgjsLinearGradient3966"><stop id="SvgjsStop3967" stop-color="#7f00ff" offset="0"></stop><stop id="SvgjsStop3968" stop-color="#e100ff" offset="1"></stop></linearGradient><linearGradient id="SvgjsLinearGradient3966"><stop id="SvgjsStop3967" stop-color="#7f00ff" offset="0"></stop><stop id="SvgjsStop3968" stop-color="#e100ff" offset="1"></stop></linearGradient><linearGradient id="SvgjsLinearGradient3966"><stop id="SvgjsStop3967" stop-color="#7f00ff" offset="0"></stop><stop id="SvgjsStop3968" stop-color="#e100ff" offset="1"></stop></linearGradient><linearGradient id="SvgjsLinearGradient3966"><stop id="SvgjsStop3967" stop-color="#7f00ff" offset="0"></stop><stop id="SvgjsStop3968" stop-color="#e100ff" offset="1"></stop></linearGradient><linearGradient id="SvgjsLinearGradient3966"><stop id="SvgjsStop3967" stop-color="#7f00ff" offset="0"></stop><stop id="SvgjsStop3968" stop-color="#e100ff" offset="1"></stop></linearGradient><linearGradient id="SvgjsLinearGradient3966"><stop id="SvgjsStop3967" stop-color="#7f00ff" offset="0"></stop><stop id="SvgjsStop3968" stop-color="#e100ff" offset="1"></stop></linearGradient><linearGradient id="SvgjsLinearGradient3966"><stop id="SvgjsStop3967" stop-color="#7f00ff" offset="0"></stop><stop id="SvgjsStop3968" stop-color="#e100ff" offset="1"></stop></linearGradient><linearGradient id="SvgjsLinearGradient3966"><stop id="SvgjsStop3967" stop-color="#7f00ff" offset="0"></stop><stop id="SvgjsStop3968" stop-color="#e100ff" offset="1"></stop></linearGradient><linearGradient id="SvgjsLinearGradient3966"><stop id="SvgjsStop3967" stop-color="#7f00ff" offset="0"></stop><stop id="SvgjsStop3968" stop-color="#e100ff" offset="1"></stop></linearGradient><linearGradient id="SvgjsLinearGradient3966"><stop id="SvgjsStop3967" stop-color="#7f00ff" offset="0"></stop><stop id="SvgjsStop3968" stop-color="#e100ff" offset="1"></stop></linearGradient><linearGradient id="SvgjsLinearGradient3966"><stop id="SvgjsStop3967" stop-color="#7f00ff" offset="0"></stop><stop id="SvgjsStop3968" stop-color="#e100ff" offset="1"></stop></linearGradient><linearGradient id="SvgjsLinearGradient3966"><stop id="SvgjsStop3967" stop-color="#7f00ff" offset="0"></stop><stop id="SvgjsStop3968" stop-color="#e100ff" offset="1"></stop></linearGradient><linearGradient id="SvgjsLinearGradient3966"><stop id="SvgjsStop3967" stop-color="#7f00ff" offset="0"></stop><stop id="SvgjsStop3968" stop-color="#e100ff" offset="1"></stop></linearGradient><linearGradient id="SvgjsLinearGradient3966"><stop id="SvgjsStop3967" stop-color="#7f00ff" offset="0"></stop><stop id="SvgjsStop3968" stop-color="#e100ff" offset="1"></stop></linearGradient><linearGradient id="SvgjsLinearGradient3966"><stop id="SvgjsStop3967" stop-color="#7f00ff" offset="0"></stop><stop id="SvgjsStop3968" stop-color="#e100ff" offset="1"></stop></linearGradient><linearGradient id="SvgjsLinearGradient3966"><stop id="SvgjsStop3967" stop-color="#7f00ff" offset="0"></stop><stop id="SvgjsStop3968" stop-color="#e100ff" offset="1"></stop></linearGradient><linearGradient id="SvgjsLinearGradient3966"><stop id="SvgjsStop3967" stop-color="#7f00ff" offset="0"></stop><stop id="SvgjsStop3968" stop-color="#e100ff" offset="1"></stop></linearGradient><linearGradient id="SvgjsLinearGradient3966"><stop id="SvgjsStop3967" stop-color="#7f00ff" offset="0"></stop><stop id="SvgjsStop3968" stop-color="#e100ff" offset="1"></stop></linearGradient><linearGradient id="SvgjsLinearGradient3966"><stop id="SvgjsStop3967" stop-color="#7f00ff" offset="0"></stop><stop id="SvgjsStop3968" stop-color="#e100ff" offset="1"></stop></linearGradient><linearGradient id="SvgjsLinearGradient3966"><stop id="SvgjsStop3967" stop-color="#7f00ff" offset="0"></stop><stop id="SvgjsStop3968" stop-color="#e100ff" offset="1"></stop></linearGradient><linearGradient id="SvgjsLinearGradient3966"><stop id="SvgjsStop3967" stop-color="#7f00ff" offset="0"></stop><stop id="SvgjsStop3968" stop-color="#e100ff" offset="1"></stop></linearGradient><linearGradient id="SvgjsLinearGradient3966"><stop id="SvgjsStop3967" stop-color="#7f00ff" offset="0"></stop><stop id="SvgjsStop3968" stop-color="#e100ff" offset="1"></stop></linearGradient><linearGradient id="SvgjsLinearGradient3966"><stop id="SvgjsStop3967" stop-color="#7f00ff" offset="0"></stop><stop id="SvgjsStop3968" stop-color="#e100ff" offset="1"></stop></linearGradient><linearGradient id="SvgjsLinearGradient3966"><stop id="SvgjsStop3967" stop-color="#7f00ff" offset="0"></stop><stop id="SvgjsStop3968" stop-color="#e100ff" offset="1"></stop></linearGradient><linearGradient id="SvgjsLinearGradient3966"><stop id="SvgjsStop3967" stop-color="#7f00ff" offset="0"></stop><stop id="SvgjsStop3968" stop-color="#e100ff" offset="1"></stop></linearGradient><linearGradient id="SvgjsLinearGradient3969"><stop id="SvgjsStop3970" stop-color="#7f00ff" offset="0"></stop><stop id="SvgjsStop3971" stop-color="#e100ff" offset="1"></stop></linearGradient><linearGradient id="SvgjsLinearGradient3969"><stop id="SvgjsStop3970" stop-color="#7f00ff" offset="0"></stop><stop id="SvgjsStop3971" stop-color="#e100ff" offset="1"></stop></linearGradient></defs><g id="SvgjsG3960" featurekey="symbolFeature-0" transform="matrix(1.5909090909090908,0,0,1.5909090909090908,98.63636363636364,-6.363636363636363)" fill="url(&quot;#SvgjsLinearGradient3966&quot;)"><path xmlns="http://www.w3.org/2000/svg" d="M80 82h-64c-1.1 0-2-0.9-2-2v-64c0-1.104 0.9-2 2-2h64c1.1 0 2 0.896 2 2v64c0 1.1-0.9 2-2 2zM18 78h60v-60h-60v60z" fill="url(&quot;#SvgjsLinearGradient3966&quot;)"></path><path xmlns="http://www.w3.org/2000/svg" d="M68 70h-40c-1.1 0-2-0.9-2-2v-40c0-1.104 0.9-2 2-2h40c1.1 0 2 0.896 2 2v40c0 1.1-0.9 2-2 2zM30 66h36v-36h-36v36z" fill="url(&quot;#SvgjsLinearGradient3966&quot;)"></path><path xmlns="http://www.w3.org/2000/svg" d="M20 16c-1.1 0-2-0.896-2-2v-8c0-1.104 0.9-2 2-2s2 0.896 2 2v8c0 1.104-0.9 2-2 2z" fill="url(&quot;#SvgjsLinearGradient3966&quot;)"></path><path xmlns="http://www.w3.org/2000/svg" d="M28 16c-1.1 0-2-0.896-2-2v-8c0-1.104 0.9-2 2-2s2 0.896 2 2v8c0 1.104-0.9 2-2 2z" fill="url(&quot;#SvgjsLinearGradient3966&quot;)"></path><path xmlns="http://www.w3.org/2000/svg" d="M36 16c-1.1 0-2-0.896-2-2v-8c0-1.104 0.9-2 2-2s2 0.896 2 2v8c0 1.104-0.9 2-2 2z" fill="url(&quot;#SvgjsLinearGradient3966&quot;)"></path><path xmlns="http://www.w3.org/2000/svg" d="M44 16c-1.1 0-2-0.896-2-2v-8c0-1.104 0.9-2 2-2s2 0.896 2 2v8c0 1.104-0.9 2-2 2z" fill="url(&quot;#SvgjsLinearGradient3966&quot;)"></path><path xmlns="http://www.w3.org/2000/svg" d="M52 16c-1.1 0-2-0.896-2-2v-8c0-1.104 0.9-2 2-2s2 0.896 2 2v8c0 1.104-0.9 2-2 2z" fill="url(&quot;#SvgjsLinearGradient3966&quot;)"></path><path xmlns="http://www.w3.org/2000/svg" d="M60 16c-1.1 0-2-0.896-2-2v-8c0-1.104 0.9-2 2-2s2 0.896 2 2v8c0 1.104-0.9 2-2 2z" fill="url(&quot;#SvgjsLinearGradient3966&quot;)"></path><path xmlns="http://www.w3.org/2000/svg" d="M68 16c-1.1 0-2-0.896-2-2v-8c0-1.104 0.9-2 2-2s2 0.896 2 2v8c0 1.104-0.9 2-2 2z" fill="url(&quot;#SvgjsLinearGradient3966&quot;)"></path><path xmlns="http://www.w3.org/2000/svg" d="M76 16c-1.1 0-2-0.896-2-2v-8c0-1.104 0.9-2 2-2s2 0.896 2 2v8c0 1.104-0.9 2-2 2z" fill="url(&quot;#SvgjsLinearGradient3966&quot;)"></path><path xmlns="http://www.w3.org/2000/svg" d="M20 92c-1.1 0-2-0.9-2-2v-8c0-1.1 0.9-2 2-2s2 0.9 2 2v8c0 1.1-0.9 2-2 2z" fill="url(&quot;#SvgjsLinearGradient3966&quot;)"></path><path xmlns="http://www.w3.org/2000/svg" d="M28 92c-1.1 0-2-0.9-2-2v-8c0-1.1 0.9-2 2-2s2 0.9 2 2v8c0 1.1-0.9 2-2 2z" fill="url(&quot;#SvgjsLinearGradient3966&quot;)"></path><path xmlns="http://www.w3.org/2000/svg" d="M36 92c-1.1 0-2-0.9-2-2v-8c0-1.1 0.9-2 2-2s2 0.9 2 2v8c0 1.1-0.9 2-2 2z" fill="url(&quot;#SvgjsLinearGradient3966&quot;)"></path><path xmlns="http://www.w3.org/2000/svg" d="M44 92c-1.1 0-2-0.9-2-2v-8c0-1.1 0.9-2 2-2s2 0.9 2 2v8c0 1.1-0.9 2-2 2z" fill="url(&quot;#SvgjsLinearGradient3966&quot;)"></path><path xmlns="http://www.w3.org/2000/svg" d="M52 92c-1.1 0-2-0.9-2-2v-8c0-1.1 0.9-2 2-2s2 0.9 2 2v8c0 1.1-0.9 2-2 2z" fill="url(&quot;#SvgjsLinearGradient3966&quot;)"></path><path xmlns="http://www.w3.org/2000/svg" d="M60 92c-1.1 0-2-0.9-2-2v-8c0-1.1 0.9-2 2-2s2 0.9 2 2v8c0 1.1-0.9 2-2 2z" fill="url(&quot;#SvgjsLinearGradient3966&quot;)"></path><path xmlns="http://www.w3.org/2000/svg" d="M68 92c-1.1 0-2-0.9-2-2v-8c0-1.1 0.9-2 2-2s2 0.9 2 2v8c0 1.1-0.9 2-2 2z" fill="url(&quot;#SvgjsLinearGradient3966&quot;)"></path><path xmlns="http://www.w3.org/2000/svg" d="M76 92c-1.1 0-2-0.9-2-2v-8c0-1.1 0.9-2 2-2s2 0.9 2 2v8c0 1.1-0.9 2-2 2z" fill="url(&quot;#SvgjsLinearGradient3966&quot;)"></path><path xmlns="http://www.w3.org/2000/svg" d="M14 78h-8c-1.1 0-2-0.9-2-2s0.9-2 2-2h8c1.1 0 2 0.9 2 2s-0.9 2-2 2z" fill="url(&quot;#SvgjsLinearGradient3966&quot;)"></path><path xmlns="http://www.w3.org/2000/svg" d="M14 70h-8c-1.1 0-2-0.9-2-2s0.9-2 2-2h8c1.1 0 2 0.9 2 2s-0.9 2-2 2z" fill="url(&quot;#SvgjsLinearGradient3966&quot;)"></path><path xmlns="http://www.w3.org/2000/svg" d="M14 62h-8c-1.1 0-2-0.9-2-2s0.9-2 2-2h8c1.1 0 2 0.9 2 2s-0.9 2-2 2z" fill="url(&quot;#SvgjsLinearGradient3966&quot;)"></path><path xmlns="http://www.w3.org/2000/svg" d="M14 54h-8c-1.1 0-2-0.9-2-2s0.9-2 2-2h8c1.1 0 2 0.9 2 2s-0.9 2-2 2z" fill="url(&quot;#SvgjsLinearGradient3966&quot;)"></path><path xmlns="http://www.w3.org/2000/svg" d="M14 46h-8c-1.1 0-2-0.896-2-2s0.9-2 2-2h8c1.1 0 2 0.896 2 2s-0.9 2-2 2z" fill="url(&quot;#SvgjsLinearGradient3966&quot;)"></path><path xmlns="http://www.w3.org/2000/svg" d="M14 38h-8c-1.1 0-2-0.896-2-2s0.9-2 2-2h8c1.1 0 2 0.896 2 2s-0.9 2-2 2z" fill="url(&quot;#SvgjsLinearGradient3966&quot;)"></path><path xmlns="http://www.w3.org/2000/svg" d="M14 30h-8c-1.1 0-2-0.896-2-2s0.9-2 2-2h8c1.1 0 2 0.896 2 2s-0.9 2-2 2z" fill="url(&quot;#SvgjsLinearGradient3966&quot;)"></path><path xmlns="http://www.w3.org/2000/svg" d="M14 22h-8c-1.1 0-2-0.896-2-2s0.9-2 2-2h8c1.1 0 2 0.896 2 2s-0.9 2-2 2z" fill="url(&quot;#SvgjsLinearGradient3966&quot;)"></path><path xmlns="http://www.w3.org/2000/svg" d="M90 78h-8c-1.1 0-2-0.9-2-2s0.9-2 2-2h8c1.1 0 2 0.9 2 2s-0.9 2-2 2z" fill="url(&quot;#SvgjsLinearGradient3966&quot;)"></path><path xmlns="http://www.w3.org/2000/svg" d="M90 70h-8c-1.1 0-2-0.9-2-2s0.9-2 2-2h8c1.1 0 2 0.9 2 2s-0.9 2-2 2z" fill="url(&quot;#SvgjsLinearGradient3966&quot;)"></path><path xmlns="http://www.w3.org/2000/svg" d="M90 62h-8c-1.1 0-2-0.9-2-2s0.9-2 2-2h8c1.1 0 2 0.9 2 2s-0.9 2-2 2z" fill="url(&quot;#SvgjsLinearGradient3966&quot;)"></path><path xmlns="http://www.w3.org/2000/svg" d="M90 54h-8c-1.1 0-2-0.9-2-2s0.9-2 2-2h8c1.1 0 2 0.9 2 2s-0.9 2-2 2z" fill="url(&quot;#SvgjsLinearGradient3966&quot;)"></path><path xmlns="http://www.w3.org/2000/svg" d="M90 46h-8c-1.1 0-2-0.896-2-2s0.9-2 2-2h8c1.1 0 2 0.896 2 2s-0.9 2-2 2z" fill="url(&quot;#SvgjsLinearGradient3966&quot;)"></path><path xmlns="http://www.w3.org/2000/svg" d="M90 38h-8c-1.1 0-2-0.896-2-2s0.9-2 2-2h8c1.1 0 2 0.896 2 2s-0.9 2-2 2z" fill="url(&quot;#SvgjsLinearGradient3966&quot;)"></path><path xmlns="http://www.w3.org/2000/svg" d="M90 30h-8c-1.1 0-2-0.896-2-2s0.9-2 2-2h8c1.1 0 2 0.896 2 2s-0.9 2-2 2z" fill="url(&quot;#SvgjsLinearGradient3966&quot;)"></path><path xmlns="http://www.w3.org/2000/svg" d="M90 22h-8c-1.1 0-2-0.896-2-2s0.9-2 2-2h8c1.1 0 2 0.896 2 2s-0.9 2-2 2z" fill="url(&quot;#SvgjsLinearGradient3966&quot;)"></path></g><g id="SvgjsG3961" featurekey="nameFeature-0" transform="matrix(1.0045348061745678,0,0,1.0045348061745678,-1.808162842714031,150.6779182249388)" fill="#111111"><path d="M29.88 19.48 l-10.2 12.2 l-10.12 -12.2 l0 20.52 l-4.28 0 l0 -25.64 l-3.48 -4.2 l5.64 0 l12.2 14.64 l12.36 -14.64 l5.64 0 l-3.48 4.2 l0 25.64 l-4.28 0 l0 -20.52 z M54.705999999999996 23.28 q2.68 -2.8 4.84 -6.24 t3.44 -6.88 l5 0 q-2.04 4.76 -4.96 9.12 q-2.64 3.96 -6.16 7.8 l0 12.92 l-4.32 0 l0 -12.92 q-3.52 -3.84 -6.16 -7.8 q-2.92 -4.36 -4.96 -9.12 l5 0 q1.28 3.44 3.44 6.88 t4.84 6.24 z M91.37199999999999 27.16 l-19 0 l0 -3.72 l19 0 l0 3.72 z M109.198 22.92 l5.28 0 q4.4 0 4.4 -4.24 q0 -2.2 -1.1 -3.18 t-3.3 -0.98 l-10.96 0 l0 9.6 q1.24 -0.72 2.8 -1 q1.16 -0.2 2.88 -0.2 z M103.518 40 l-4.36 0 l0 -29.84 l15.32 0 q2.64 0 4.6 1.02 t3.04 2.94 t1.08 4.54 t-1.08 4.58 t-3.06 3.02 t-4.58 1.06 l-5.28 0 q-3.44 0 -5.68 1.2 l0 11.48 z M143.584 40.68 q-4.2 0 -7.22 -1.46 t-4.6 -4.22 t-1.58 -6.6 l0 -18.24 l4.32 0 l0 18.24 q0 3.84 2.36 5.88 t6.72 2.04 t6.72 -2.04 t2.36 -5.88 l0 -18.24 l4.32 0 l0 18.24 q0 3.84 -1.58 6.6 t-4.6 4.22 t-7.22 1.46 z M178.77 28.04 l-8.04 11.96 l-4.36 0 l0 -29.84 l4.36 0 l0 22.28 l15.16 -22.28 l5.24 0 l-9.8 14.04 l5.36 8.04 q1.28 1.92 2.52 2.72 q1 0.64 2.12 0.64 l1.24 -0.04 l0 4.44 l-0.8 0 q-2 0.04 -2.92 -0.16 q-1.48 -0.24 -2.72 -1.2 q-1.4 -1.12 -2.84 -3.36 z M212.756 28.04 l-8.04 11.96 l-4.36 0 l0 -29.84 l4.36 0 l0 22.28 l15.16 -22.28 l5.24 0 l-9.8 14.04 l5.36 8.04 q1.28 1.92 2.52 2.72 q1 0.64 2.12 0.64 l1.24 -0.04 l0 4.44 l-0.8 0 q-2 0.04 -2.92 -0.16 q-1.48 -0.24 -2.72 -1.2 q-1.4 -1.12 -2.84 -3.36 z M243.66199999999998 13.32 l-1.64 -3.68 l4.8 0 l14.36 30.36 l-4.88 0 l-1.96 -4.36 l-9.08 0 q-2.56 0 -4.6 0.48 q-1.8 0.44 -3 1.16 q-1.08 0.64 -1.44 1.32 l-0.76 1.4 l-4.72 0 z M246.86199999999997 31.240000000000002 l5.52 0 l-6.52 -12.6 l-6.6 14.28 q0.88 -0.76 2.68 -1.2 q2.04 -0.48 4.92 -0.48 z M284.768 27.16 l-19 0 l0 -3.72 l19 0 l0 3.72 z M302.594 22.92 l5.28 0 q4.4 0 4.4 -4.24 q0 -2.2 -1.1 -3.18 t-3.3 -0.98 l-10.96 0 l0 9.6 q1.24 -0.72 2.8 -1 q1.16 -0.2 2.88 -0.2 z M296.914 40 l-4.36 0 l0 -29.84 l15.32 0 q2.64 0 4.6 1.02 t3.04 2.94 t1.08 4.54 t-1.08 4.58 t-3.06 3.02 t-4.58 1.06 l-5.28 0 q-3.44 0 -5.68 1.2 l0 11.48 z M349.53999999999996 14 l-2.8 3.28 q-1.64 -1.68 -3.92 -2.64 t-4.8 -0.96 q-3.28 0 -5.98 1.48 t-4.22 4.04 q-1.56 2.68 -1.56 5.96 q0 3.12 1.68 5.76 q1.6 2.48 4.3 3.94 t5.82 1.46 q2.88 0 5.36 -1.24 t4.12 -3.44 l2.68 3.64 q-2.28 2.56 -5.46 3.98 t-6.74 1.42 q-4.44 0 -8.16 -2.16 q-3.64 -2.08 -5.72 -5.72 q-2.16 -3.72 -2.16 -8.16 q0 -4.28 2.28 -7.88 q2.16 -3.44 5.86 -5.46 t7.94 -2.02 q3.32 0 6.32 1.28 q2.92 1.2 5.16 3.44 z" fill="#111111"></path></g><g id="SvgjsG3962" featurekey="sloganFeature-0" transform="matrix(0.8394426344788101,0,0,0.8394426344788101,34.67186176082366,207.22079183523684)" fill="url(&quot;#SvgjsLinearGradient3969&quot;)"><path d="M10.01 5.888999999999999 l0 2.5781 l-3.3496 0 l0 11.533 l-2.9004 0 l0 -11.533 l-3.3691 0 l0 -2.5781 l9.6191 0 z M23.04721875 5.888999999999999 l2.9297 0 l0 14.111 l-2.9297 0 l0 -5.8008 l-5.9668 0 l0 5.8008 l-2.9297 0 l0 -14.111 l2.9297 0 l0 5.7617 l5.9668 0 l0 -5.7617 z M39.7365625 8.467 l-5.2344 0 l0 3.2031 l4.6387 0 l0 2.5488 l-4.6387 0 l0 3.1934 l5.2344 0 l0 2.5879 l-8.1836 0 l0 -14.111 l8.1836 0 l0 2.5781 z M57.666003125 5.888999999999999 c2.7637 0 4.4824 2.0508 4.4824 4.5605 c0 2.5684 -1.7188 4.4922 -4.4824 4.4922 l-2.9395 0 l0 5.0586 l-2.9297 0 l0 -14.111 l5.8691 0 z M57.177703125 12.4902 c1.4648 0 2.1484 -0.81055 2.1484 -2.0801 c0 -1.2207 -0.68359 -2.0703 -2.1484 -2.0703 l-2.4512 0 l0 4.1504 l2.4512 0 z M74.71703125 8.467 l-5.2344 0 l0 3.2031 l4.6387 0 l0 2.5488 l-4.6387 0 l0 3.1934 l5.2344 0 l0 2.5879 l-8.1836 0 l0 -14.111 l8.1836 0 l0 2.5781 z M87.10933125 20 l-3.6719 -6.2109 l-0.84961 0 l0 6.2109 l-2.9297 0 l0 -14.111 l5.1172 0 c3.1934 0 4.541 1.8848 4.541 4.2188 c0 1.8945 -1.0742 3.125 -2.9883 3.5352 l4.248 6.3574 l-3.4668 0 z M82.58793125 8.32 l0 3.3691 l1.7285 0 c1.5625 0 2.1973 -0.66406 2.1973 -1.6797 c0 -1.0059 -0.63477 -1.6895 -2.1973 -1.6895 l-1.7285 0 z M102.968265625 8.467 l-5.3711 0 l0 3.2031 l4.6387 0 l0 2.5488 l-4.6387 0 l0 5.7813 l-2.9492 0 l0 -14.111 l8.3203 0 l0 2.5781 z M115.57640625 8.467 l-5.2344 0 l0 3.2031 l4.6387 0 l0 2.5488 l-4.6387 0 l0 3.1934 l5.2344 0 l0 2.5879 l-8.1836 0 l0 -14.111 l8.1836 0 l0 2.5781 z M126.76760625 20.19531 c-4.1504 0 -7.2168 -2.8223 -7.2168 -7.2559 s3.0664 -7.2461 7.2168 -7.2461 c3.1445 0 5.6641 1.6113 6.6699 4.2871 l-2.7344 0.99609 c-0.625 -1.6406 -2.1191 -2.5879 -3.9355 -2.5879 c-2.4316 0 -4.2969 1.6992 -4.2969 4.5508 s1.8652 4.5605 4.2969 4.5605 c1.8164 0 3.3105 -0.95703 3.9355 -2.5977 l2.7344 0.99609 c-1.0059 2.6758 -3.5254 4.2969 -6.6699 4.2969 z M145.9475 5.888999999999999 l0 2.5781 l-3.3496 0 l0 11.533 l-2.9004 0 l0 -11.533 l-3.3691 0 l0 -2.5781 l9.6191 0 z M163.076159375 5.888999999999999 c2.7637 0 4.4824 2.0508 4.4824 4.5605 c0 2.5684 -1.7188 4.4922 -4.4824 4.4922 l-2.9395 0 l0 5.0586 l-2.9297 0 l0 -14.111 l5.8691 0 z M162.587859375 12.4902 c1.4648 0 2.1484 -0.81055 2.1484 -2.0801 c0 -1.2207 -0.68359 -2.0703 -2.1484 -2.0703 l-2.4512 0 l0 4.1504 l2.4512 0 z M178.1933875 20.19531 c-4.1504 0 -7.2168 -2.8223 -7.2168 -7.2559 s3.0664 -7.2461 7.2168 -7.2461 c3.1445 0 5.6641 1.6113 6.6699 4.2871 l-2.7344 0.99609 c-0.625 -1.6406 -2.1191 -2.5879 -3.9355 -2.5879 c-2.4316 0 -4.2969 1.6992 -4.2969 4.5508 s1.8652 4.5605 4.2969 4.5605 c1.8164 0 3.3105 -0.95703 3.9355 -2.5977 l2.7344 0.99609 c-1.0059 2.6758 -3.5254 4.2969 -6.6699 4.2969 z M190.79098125 23.5938 l-2.0117 0 l1.2207 -6.3867 l2.8906 0 z M212.97875 8.467 l-5.2344 0 l0 3.2031 l4.6387 0 l0 2.5488 l-4.6387 0 l0 3.1934 l5.2344 0 l0 2.5879 l-8.1836 0 l0 -14.111 l8.1836 0 l0 2.5781 z M226.89475 5.888999999999999 l3.1152 0 l-5.2148 14.111 l-3.2227 0 l-5.1855 -14.111 l3.1055 0 l3.7012 10.693 z M242.2365625 8.467 l-5.2344 0 l0 3.2031 l4.6387 0 l0 2.5488 l-4.6387 0 l0 3.1934 l5.2344 0 l0 2.5879 l-8.1836 0 l0 -14.111 l8.1836 0 l0 2.5781 z M254.6288625 20 l-3.6719 -6.2109 l-0.84961 0 l0 6.2109 l-2.9297 0 l0 -14.111 l5.1172 0 c3.1934 0 4.541 1.8848 4.541 4.2188 c0 1.8945 -1.0742 3.125 -2.9883 3.5352 l4.248 6.3574 l-3.4668 0 z M250.1074625 8.32 l0 3.3691 l1.7285 0 c1.5625 0 2.1973 -0.66406 2.1973 -1.6797 c0 -1.0059 -0.63477 -1.6895 -2.1973 -1.6895 l-1.7285 0 z M272.753796875 5.888999999999999 l-4.6387 7.3535 l0 6.7578 l-2.9395 0 l0 -6.6895 l-4.668 -7.4219 l3.2422 0 l2.8809 4.8047 l2.8906 -4.8047 l3.2324 0 z M291.963125 5.888999999999999 l0 2.5781 l-3.3496 0 l0 11.533 l-2.9004 0 l0 -11.533 l-3.3691 0 l0 -2.5781 l9.6191 0 z M296.10354375 20 l0 -14.111 l2.9297 0 l0 14.111 l-2.9297 0 z M320.7714375 20 l-2.9199 0 l-0.92773 -10.635 l-3.5742 10.635 l-1.8945 0 l-3.5742 -10.635 l-0.9375 10.635 l-2.9297 0 l1.1816 -14.111 l4.1797 0 l3.0078 8.8574 l3.0469 -8.8574 l4.1797 0 z M333.945546875 8.467 l-5.2344 0 l0 3.2031 l4.6387 0 l0 2.5488 l-4.6387 0 l0 3.1934 l5.2344 0 l0 2.5879 l-8.1836 0 l0 -14.111 l8.1836 0 l0 2.5781 z" fill="url(&quot;#SvgjsLinearGradient3969&quot;)"></path></g></svg>