<svg version="1.1" id="Layer_1" xmlns="http://www.w3.org/2000/svg" xmlns:xlink="http://www.w3.org/1999/xlink" x="0px" y="0px"
	 width="100%" viewBox="0 0 170 170" enable-background="new 0 0 170 170" xml:space="preserve">
<path fill="#FEFEFE" opacity="1.000000" stroke="none" 
	d="
M152.001740,171.000000 
	C101.334663,171.000000 51.168060,171.000000 1.001091,171.000000 
	C1.000727,114.333893 1.000727,57.667778 1.000364,1.001251 
	C57.666042,1.000834 114.332085,1.000834 170.998596,1.000417 
	C170.999054,57.665970 170.999054,114.331940 170.999527,170.998962 
	C164.834061,171.000000 158.668137,171.000000 152.001740,171.000000 
M119.336533,93.244621 
	C126.157814,95.922310 129.697800,95.005562 132.735031,89.732391 
	C133.944107,93.013733 136.038300,95.070610 139.788559,94.489532 
	C142.200562,94.115814 144.576706,93.510590 147.042450,93.559189 
	C147.345810,93.755447 147.649170,93.951706 148.286819,94.810059 
	C149.553558,93.778252 151.172119,92.966667 151.992752,91.655624 
	C152.898956,90.207863 152.892410,88.216431 153.642441,86.631721 
	C154.025589,85.822151 155.193924,85.384186 156.007385,84.778267 
	C156.399780,85.723839 157.163284,86.691544 157.108490,87.610443 
	C156.988983,89.614441 156.453049,91.593605 156.046875,93.802589 
	C157.707504,93.802589 159.280746,93.802589 161.062042,93.802589 
	C161.523071,90.679794 161.953064,87.767319 162.447357,84.108231 
	C161.317749,83.351135 160.188156,82.594048 158.398468,81.493851 
	C154.079041,81.201515 149.493362,80.424530 149.184708,87.710457 
	C146.924500,81.906746 144.403900,80.242744 139.190399,81.646523 
	C136.793549,82.291893 134.837158,84.572998 132.836960,85.387047 
	C130.434067,80.764977 126.458160,80.025543 119.381050,82.930809 
	C119.175255,82.934921 118.969460,82.939026 118.821976,82.275429 
	C114.326653,79.421768 112.946739,84.665733 109.632935,86.010658 
	C110.081917,82.987473 110.477768,80.322067 110.873619,77.656670 
	C110.388100,77.361984 109.902580,77.067299 109.417061,76.772614 
	C107.989098,78.300163 106.561134,79.827713 104.794724,81.717316 
	C102.561584,82.025566 98.736740,79.985374 96.423988,84.791405 
	C96.103333,85.297188 95.782677,85.802971 95.922112,85.583038 
	C94.147377,84.160271 92.610786,81.943199 90.856461,81.754929 
	C88.281136,81.478539 84.797188,79.918793 82.436066,84.014877 
	C85.244728,84.390022 87.553505,84.698395 89.181961,84.915901 
	C85.912567,86.375427 82.509949,87.894440 79.657913,88.646889 
	C80.690895,82.283020 80.417702,81.944847 73.770943,80.814919 
	C73.508087,80.544144 73.245232,80.273376 72.999062,79.116524 
	C71.662399,78.731400 70.325737,78.346275 68.815308,77.530685 
	C68.110062,77.573860 67.404823,77.617035 65.700912,77.466812 
	C62.556404,77.492088 59.272648,76.976349 56.317394,77.736946 
	C54.415764,78.226379 52.152107,80.363091 51.656216,82.195869 
	C51.320957,83.434959 53.524750,85.743652 55.064167,86.993347 
	C56.439770,88.110062 58.461250,88.431183 60.308338,89.146172 
	C57.395782,93.343964 50.082489,87.015594 48.996010,94.899422 
	C53.909939,94.899422 58.361546,94.899422 63.488266,94.953445 
	C64.304871,94.714966 65.121468,94.476494 66.772591,94.404396 
	C71.762466,94.784424 70.298645,90.545631 70.983009,88.144478 
	C71.803246,85.266579 72.565163,83.421616 75.957108,85.577103 
	C75.517845,88.454948 75.084671,91.292900 74.651489,94.130852 
	C75.220871,94.409126 75.790253,94.687401 76.359634,94.965683 
	C77.230659,93.616692 78.101677,92.267708 79.736412,90.597786 
	C82.447319,95.420197 89.748001,96.121666 93.612106,92.260162 
	C94.473755,92.935349 95.269455,93.558853 96.537018,94.369331 
	C96.693466,94.304939 96.849915,94.240547 97.714508,94.194221 
	C98.191750,93.137955 98.668983,92.081680 99.942993,90.997147 
	C101.271584,91.001549 102.600174,91.005951 103.928833,91.861938 
	C104.489899,92.994179 105.050972,94.126411 105.006508,95.594955 
	C104.712471,95.875893 104.418442,96.156837 104.124405,96.437775 
	C104.396233,96.499893 104.846611,96.690338 104.909744,96.602493 
	C105.224617,96.164360 105.437737,95.653099 106.012581,94.564697 
	C107.149109,92.807961 108.285637,91.051231 109.481133,89.203346 
	C111.499794,91.353188 112.254257,96.074593 118.025047,93.515099 
	C118.261040,93.271347 118.497032,93.027603 119.336533,93.244621 
M41.894634,94.763344 
	C42.118977,94.586075 42.343315,94.408806 43.162212,93.788200 
	C39.225628,86.899254 39.232750,79.478821 40.716969,71.831131 
	C26.347666,74.576233 11.412479,88.534889 10.594138,99.821152 
	C18.043238,95.255135 25.543648,96.693001 33.180569,99.089211 
	C40.137295,101.271996 42.901424,100.914757 46.745930,98.277664 
	C45.300545,97.939117 43.667591,97.720078 42.218658,97.082703 
	C41.920139,96.951385 42.308048,95.259636 41.894634,94.763344 
z"/>
<path fill="#0F0F0F" opacity="1.000000" stroke="none" 
	d="
M42.379574,94.287117 
	C42.308048,95.259636 41.920139,96.951385 42.218658,97.082703 
	C43.667591,97.720078 45.300545,97.939117 46.745930,98.277664 
	C42.901424,100.914757 40.137295,101.271996 33.180569,99.089211 
	C25.543648,96.693001 18.043238,95.255135 10.594138,99.821152 
	C11.412479,88.534889 26.347666,74.576233 40.716969,71.831131 
	C39.232750,79.478821 39.225628,86.899254 42.817726,94.006096 
	C42.473244,94.223991 42.379574,94.287117 42.379574,94.287117 
M33.966618,84.508057 
	C31.036428,82.799622 28.236814,84.525681 26.291769,88.678871 
	C30.544376,91.192749 34.655312,93.719490 38.882622,96.033653 
	C39.652847,96.455299 40.898140,96.009140 41.924126,95.963585 
	C41.551060,95.024078 41.363258,93.942513 40.771484,93.170700 
	C38.682419,90.446007 36.454948,87.827438 33.966618,84.508057 
z"/>
<path fill="#1C1C1C" opacity="1.000000" stroke="none" 
	d="
M132.681030,86.112366 
	C134.837158,84.572998 136.793549,82.291893 139.190399,81.646523 
	C144.403900,80.242744 146.924500,81.906746 149.184708,87.710457 
	C149.493362,80.424530 154.079041,81.201515 158.733490,82.005600 
	C160.173355,83.296516 161.278183,84.075684 162.383026,84.854851 
	C161.953064,87.767319 161.523071,90.679794 161.062042,93.802589 
	C159.280746,93.802589 157.707504,93.802589 156.046875,93.802589 
	C156.453049,91.593605 156.988983,89.614441 157.108490,87.610443 
	C157.163284,86.691544 156.399780,85.723839 156.007385,84.778259 
	C155.193924,85.384186 154.025589,85.822151 153.642441,86.631721 
	C152.892410,88.216431 152.898956,90.207863 151.992752,91.655624 
	C151.172119,92.966667 149.553558,93.778252 148.028717,94.233292 
	C147.503387,93.440720 147.236160,93.224922 146.968918,93.009125 
	C144.576706,93.510590 142.200562,94.115814 139.788559,94.489532 
	C136.038300,95.070610 133.944107,93.013733 132.357437,89.509552 
	C132.213577,88.228592 132.447311,87.170479 132.681030,86.112366 
M137.599213,89.659401 
	C139.097702,90.055290 141.242172,91.242363 141.947311,90.666603 
	C143.081116,89.740852 143.431885,87.681053 143.731796,86.031029 
	C143.807678,85.613640 142.036224,84.320084 141.800705,84.474831 
	C140.352020,85.426682 139.083160,86.659904 137.801590,87.850235 
	C137.608810,88.029297 137.662842,88.474113 137.599213,89.659401 
z"/>
<path fill="#1D1D1D" opacity="1.000000" stroke="none" 
	d="
M79.107315,89.413452 
	C82.509949,87.894440 85.912567,86.375427 89.181961,84.915901 
	C87.553505,84.698395 85.244728,84.390022 82.436066,84.014877 
	C84.797188,79.918793 88.281136,81.478539 90.856461,81.754929 
	C92.610786,81.943199 94.147377,84.160271 95.922112,85.583038 
	C95.782677,85.802971 96.103333,85.297188 97.180740,85.190414 
	C98.597969,85.718880 99.258430,85.848335 99.884079,86.343018 
	C99.614906,88.147301 99.380562,89.586357 99.146225,91.025414 
	C98.668983,92.081680 98.191750,93.137955 97.348274,93.914062 
	C96.864326,93.380531 96.746620,93.127167 96.628906,92.873795 
	C96.440987,93.309982 96.253075,93.746178 96.065155,94.182365 
	C95.269455,93.558853 94.473755,92.935349 93.612106,92.260162 
	C89.748001,96.121666 82.447319,95.420197 79.338409,90.567352 
	C78.996048,90.162437 79.051682,89.787941 79.107315,89.413452 
M94.110199,87.805832 
	C94.110199,88.780052 94.110199,89.754265 94.110199,90.728485 
	C94.422142,90.706459 94.734085,90.684433 95.046028,90.662415 
	C94.906593,89.496948 94.767159,88.331490 94.110199,87.805832 
z"/>
<path fill="#0F0F0F" opacity="1.000000" stroke="none" 
	d="
M62.813156,94.899422 
	C58.361546,94.899422 53.909939,94.899422 48.996010,94.899422 
	C50.082489,87.015594 57.395782,93.343964 60.308338,89.146172 
	C58.461250,88.431183 56.439770,88.110062 55.064167,86.993347 
	C53.524750,85.743652 51.320957,83.434959 51.656216,82.195869 
	C52.152107,80.363091 54.415764,78.226379 56.317394,77.736946 
	C59.272648,76.976349 62.556404,77.492088 66.163986,78.035378 
	C65.492111,79.412437 64.440132,80.713989 63.204128,80.921974 
	C60.955166,81.300407 58.596928,81.029419 56.284290,81.029419 
	C56.206554,81.626587 56.128822,82.223755 56.051086,82.820923 
	C58.093811,83.557999 60.383076,83.943634 62.098606,85.147110 
	C63.391945,86.054398 64.610733,87.985786 64.664047,89.503441 
	C64.726387,91.278236 63.487526,93.098747 62.813156,94.899422 
z"/>
<path fill="#191919" opacity="1.000000" stroke="none" 
	d="
M99.918900,85.977798 
	C99.258430,85.848335 98.597969,85.718880 97.628860,85.136955 
	C98.736740,79.985374 102.561584,82.025566 104.794724,81.717316 
	C106.561134,79.827713 107.989098,78.300163 109.417061,76.772614 
	C109.902580,77.067299 110.388100,77.361984 110.873619,77.656670 
	C110.477768,80.322067 110.081917,82.987473 109.632935,86.010658 
	C112.946739,84.665733 114.326653,79.421768 118.463692,82.692764 
	C113.489426,86.164581 112.956261,89.635773 117.025696,93.589401 
	C117.126335,93.687164 117.118622,93.896446 117.161438,94.053719 
	C112.254257,96.074593 111.499794,91.353188 109.481133,89.203346 
	C108.285637,91.051231 107.149109,92.807961 105.809853,94.898514 
	C105.607124,95.232330 105.612038,95.258652 105.612038,95.258652 
	C105.050972,94.126411 104.489899,92.994179 104.128281,91.087051 
	C104.635704,88.634865 104.943680,86.957550 105.409676,84.419556 
	C103.085846,85.079041 101.502373,85.528419 99.918900,85.977798 
z"/>
<path fill="#181818" opacity="1.000000" stroke="none" 
	d="
M79.382614,89.030167 
	C79.051682,89.787941 78.996048,90.162437 78.956558,90.727821 
	C78.101677,92.267708 77.230659,93.616692 76.359634,94.965683 
	C75.790253,94.687401 75.220871,94.409126 74.651489,94.130852 
	C75.084671,91.292900 75.517845,88.454948 75.957108,85.577103 
	C72.565163,83.421616 71.803246,85.266579 70.983009,88.144478 
	C70.298645,90.545631 71.762466,94.784424 66.327698,93.893768 
	C66.918228,88.242477 67.953651,83.101807 68.989075,77.961143 
	C70.325737,78.346275 71.662399,78.731400 72.848160,79.896690 
	C73.063248,80.914452 73.429245,81.152039 73.795235,81.389633 
	C80.417702,81.944847 80.690895,82.283020 79.382614,89.030167 
z"/>
<path fill="#191919" opacity="1.000000" stroke="none" 
	d="
M132.759003,85.749710 
	C132.447311,87.170479 132.213577,88.228592 131.984528,89.627335 
	C129.697800,95.005562 126.157814,95.922310 118.975800,92.668152 
	C119.074982,89.060677 119.534897,86.029686 119.994812,82.998695 
	C126.458160,80.025543 130.434067,80.764977 132.759003,85.749710 
M128.345352,85.325874 
	C125.335091,83.183601 123.334236,84.444969 122.547371,87.504929 
	C122.270256,88.582596 123.302917,90.995895 124.100662,91.174141 
	C127.166481,91.859123 128.467529,89.859673 128.652817,86.996368 
	C128.673706,86.673775 128.625015,86.346664 128.345352,85.325874 
z"/>
<path fill="#D9D9D9" opacity="1.000000" stroke="none" 
	d="
M68.902191,77.745911 
	C67.953651,83.101807 66.918228,88.242477 65.910446,93.810577 
	C65.121468,94.476494 64.304871,94.714966 63.150711,94.926437 
	C63.487526,93.098747 64.726387,91.278236 64.664047,89.503441 
	C64.610733,87.985786 63.391945,86.054398 62.098606,85.147110 
	C60.383076,83.943634 58.093811,83.557999 56.051086,82.820923 
	C56.128822,82.223755 56.206554,81.626587 56.284290,81.029419 
	C58.596928,81.029419 60.955166,81.300407 63.204128,80.921974 
	C64.440132,80.713989 65.492111,79.412437 66.663322,78.132080 
	C67.404823,77.617035 68.110062,77.573860 68.902191,77.745911 
z"/>
<path fill="#E1E1E1" opacity="1.000000" stroke="none" 
	d="
M99.884079,86.343018 
	C101.502373,85.528419 103.085846,85.079041 105.409676,84.419556 
	C104.943680,86.957550 104.635704,88.634865 104.128250,90.661263 
	C102.600174,91.005951 101.271584,91.001549 99.544609,91.011276 
	C99.380562,89.586357 99.614906,88.147301 99.884079,86.343018 
z"/>
<path fill="#DEDEDE" opacity="1.000000" stroke="none" 
	d="
M119.687927,82.964752 
	C119.534897,86.029686 119.074982,89.060677 118.674049,92.437767 
	C118.497032,93.027603 118.261040,93.271347 117.593246,93.784409 
	C117.118622,93.896446 117.126335,93.687164 117.025696,93.589401 
	C112.956261,89.635773 113.489426,86.164581 118.434540,83.026611 
	C118.969460,82.939026 119.175255,82.934921 119.687927,82.964752 
z"/>
<path fill="#191919" opacity="1.000000" stroke="none" 
	d="
M162.415192,84.481537 
	C161.278183,84.075684 160.173355,83.296516 159.063538,82.177155 
	C160.188156,82.594048 161.317749,83.351135 162.415192,84.481537 
z"/>
<path fill="#E1E1E1" opacity="1.000000" stroke="none" 
	d="
M105.309273,95.426804 
	C105.612038,95.258652 105.607124,95.232330 105.646896,95.199951 
	C105.437737,95.653099 105.224617,96.164360 104.909744,96.602493 
	C104.846611,96.690338 104.396233,96.499893 104.124405,96.437775 
	C104.418442,96.156837 104.712471,95.875893 105.309273,95.426804 
z"/>
<path fill="#181818" opacity="1.000000" stroke="none" 
	d="
M96.301086,94.275848 
	C96.253075,93.746178 96.440987,93.309982 96.628906,92.873795 
	C96.746620,93.127167 96.864326,93.380531 96.994202,93.905029 
	C96.849915,94.240547 96.693466,94.304939 96.301086,94.275848 
z"/>
<path fill="#191919" opacity="1.000000" stroke="none" 
	d="
M147.005676,93.284157 
	C147.236160,93.224922 147.503387,93.440720 147.861572,93.902245 
	C147.649170,93.951706 147.345810,93.755447 147.005676,93.284157 
z"/>
<path fill="#E8E8E8" opacity="1.000000" stroke="none" 
	d="
M42.137104,94.525230 
	C42.379574,94.287117 42.473244,94.223991 42.520447,94.227768 
	C42.343315,94.408806 42.118977,94.586075 42.137104,94.525230 
z"/>
<path fill="#D9D9D9" opacity="1.000000" stroke="none" 
	d="
M73.783089,81.102280 
	C73.429245,81.152039 73.063248,80.914452 72.839813,80.339729 
	C73.245232,80.273376 73.508087,80.544144 73.783089,81.102280 
z"/>
<path fill="#E8E8E8" opacity="1.000000" stroke="none" 
	d="
M34.123291,84.838341 
	C36.454948,87.827438 38.682419,90.446007 40.771484,93.170700 
	C41.363258,93.942513 41.551060,95.024078 41.924126,95.963585 
	C40.898140,96.009140 39.652847,96.455299 38.882622,96.033653 
	C34.655312,93.719490 30.544376,91.192749 26.291769,88.678871 
	C28.236814,84.525681 31.036428,82.799622 34.123291,84.838341 
z"/>
<path fill="#E6E6E6" opacity="1.000000" stroke="none" 
	d="
M137.600952,89.227699 
	C137.662842,88.474113 137.608810,88.029297 137.801590,87.850235 
	C139.083160,86.659904 140.352020,85.426682 141.800705,84.474831 
	C142.036224,84.320084 143.807678,85.613640 143.731796,86.031029 
	C143.431885,87.681053 143.081116,89.740852 141.947311,90.666603 
	C141.242172,91.242363 139.097702,90.055290 137.600952,89.227699 
z"/>
<path fill="#FEFEFE" opacity="1.000000" stroke="none" 
	d="
M94.368958,87.485931 
	C94.767159,88.331490 94.906593,89.496948 95.046028,90.662415 
	C94.734085,90.684433 94.422142,90.706459 94.110199,90.728485 
	C94.110199,89.754265 94.110199,88.780052 94.368958,87.485931 
z"/>
<path fill="#DBDADB" opacity="1.000000" stroke="none" 
	d="
M128.476959,85.673767 
	C128.625015,86.346664 128.673706,86.673775 128.652817,86.996368 
	C128.467529,89.859673 127.166481,91.859123 124.100662,91.174141 
	C123.302917,90.995895 122.270256,88.582596 122.547371,87.504929 
	C123.334236,84.444969 125.335091,83.183601 128.476959,85.673767 
z"/>
</svg>